<?xml version="1.0" encoding="UTF-8"?>
<svg width="16px" height="14px" viewBox="0 0 16 14" version="1.1" xmlns="http://www.w3.org/2000/svg" xmlns:xlink="http://www.w3.org/1999/xlink">
    <!-- Generator: Sketch 46.2 (44496) - http://www.bohemiancoding.com/sketch -->
    <title>camera - FontAwesome</title>
    <desc>Created with Sketch.</desc>
    <defs></defs>
    <g id="Page-1" stroke="none" stroke-width="1" fill="none" fill-rule="evenodd">
        <g id="Desktop" transform="translate(-362.000000, -482.000000)" fill="#FFFFFF">
            <path d="M370,487.599986 C371.325,487.599986 372.4,488.674986 372.4,489.999986 C372.4,491.324986 371.325,492.399986 370,492.399986 C368.675,492.399986 367.6,491.324986 367.6,489.999986 C367.6,488.674986 368.675,487.599986 370,487.599986 Z M375.866667,484.133319 C377.041667,484.133319 378,485.091652 378,486.266652 L378,493.733319 C378,494.908319 377.041667,495.866652 375.866667,495.866652 L364.133333,495.866652 C362.958333,495.866652 362,494.908319 362,493.733319 L362,486.266652 C362,485.091652 362.958333,484.133319 364.133333,484.133319 L366,484.133319 L366.425,482.999986 C366.633333,482.449986 367.283333,481.999986 367.866667,481.999986 L372.133333,481.999986 C372.716667,481.999986 373.366667,482.449986 373.575,482.999986 L374,484.133319 L375.866667,484.133319 Z M370,493.733319 C372.058333,493.733319 373.733333,492.058319 373.733333,489.999986 C373.733333,487.941652 372.058333,486.266652 370,486.266652 C367.941667,486.266652 366.266667,487.941652 366.266667,489.999986 C366.266667,492.058319 367.941667,493.733319 370,493.733319 Z" id="camera---FontAwesome"></path>
        </g>
    </g>
</svg>